<?xml version="1.0" encoding="UTF-8" standalone="no"?>
<!-- Created with Inkscape (http://www.inkscape.org/) -->

<svg
   width="210mm"
   height="297mm"
   viewBox="0 0 210 297"
   version="1.1"
   id="svg1"
   xml:space="preserve"
   inkscape:version="1.4.2 (f4327f4, 2025-05-13)"
   sodipodi:docname="Executive_Catering_CT_MASTER.svg"
   xmlns:inkscape="http://www.inkscape.org/namespaces/inkscape"
   xmlns:sodipodi="http://sodipodi.sourceforge.net/DTD/sodipodi-0.dtd"
   xmlns="http://www.w3.org/2000/svg"
   xmlns:svg="http://www.w3.org/2000/svg"><sodipodi:namedview
     id="namedview1"
     pagecolor="#ffffff"
     bordercolor="#000000"
     borderopacity="0.25"
     inkscape:showpageshadow="2"
     inkscape:pageopacity="0.0"
     inkscape:pagecheckerboard="0"
     inkscape:deskcolor="#d1d1d1"
     inkscape:document-units="mm"
     showgrid="false"
     inkscape:zoom="0.44809905"
     inkscape:cx="396.11778"
     inkscape:cy="561.25984"
     inkscape:window-width="933"
     inkscape:window-height="705"
     inkscape:window-x="-8"
     inkscape:window-y="-8"
     inkscape:window-maximized="0"
     inkscape:current-layer="layer1" /><defs
     id="defs1" /><g
     inkscape:label="Layer 1"
     inkscape:groupmode="layer"
     id="layer1"
     transform="translate(-10.628231,-24.799205)"><path
       style="fill:#000000"
       d="m 111.83604,270.65218 c -5.97861,-0.54704 -7.78152,-0.76718 -10.84792,-1.32453 C 82.744651,266.0117 66.760617,258.08209 52.966223,245.50421 38.472941,232.28908 28.479813,214.9603 24.293692,195.78406 c -1.75367,-8.03341 -2.000907,-10.50452 -2.009039,-20.08016 -0.008,-9.39876 0.278059,-12.45713 1.868298,-19.97604 5.047262,-23.86429 18.429157,-44.07563 38.696817,-58.445725 10.820256,-7.671737 24.100648,-13.198761 37.502482,-15.607757 24.74336,-4.447648 50.80841,1.132902 71.16215,15.235874 9.5633,6.626358 18.54636,15.692358 24.92546,25.155608 9.08298,13.47438 14.36532,28.36456 15.93082,44.90679 0.40937,4.32573 0.34684,13.44428 -0.12342,17.99634 -2.88474,27.92426 -16.96532,51.91083 -40.22052,68.51652 -13.43883,9.59618 -30.8306,15.81266 -47.75529,17.06955 -3.2885,0.24422 -10.23494,0.29847 -12.43541,0.0971 z m 11.65944,-4.45019 c 10.5139,-0.49611 23.95159,-4.17515 34.37806,-9.4122 26.50027,-13.31067 45.06589,-38.65318 49.32338,-67.32756 0.93757,-6.31459 1.29742,-15.82489 0.80907,-21.38208 -1.45816,-16.59289 -7.16919,-32.39019 -16.34937,-45.22408 -7.0924,-9.91517 -17.1546,-19.32859 -26.90392,-25.169222 -11.39622,-6.827264 -22.56463,-10.641593 -37.04166,-12.650776 -3.89271,-0.540247 -17.5227,-0.459718 -21.56354,0.127401 -19.371778,2.814648 -34.868771,9.759219 -48.551044,21.756877 -16.549371,14.51174 -26.707691,33.32782 -30.206663,55.95126 -0.522086,3.37567 -0.594318,4.86925 -0.6014,12.43541 -0.0064,6.83879 0.08678,9.24887 0.455229,11.77396 2.375645,16.28113 7.931251,30.00761 17.145923,42.36317 3.171471,4.2525 5.327319,6.69889 9.545047,10.83146 5.499803,5.38875 10.729147,9.43833 17.38677,13.46423 11.748087,7.10415 27.384142,11.84102 41.440718,12.5543 3.85145,0.19543 4.81382,0.18717 10.7334,-0.0922 z m -15.08449,-6.10414 c -0.50132,-0.354 -1.02734,-0.68225 -1.16892,-0.72944 -0.14159,-0.0472 0.063,-0.67446 0.45474,-1.39391 1.31954,-2.42372 3.35137,-4.84851 5.23886,-6.25205 1.54041,-1.14547 1.77542,-1.41511 1.3718,-1.574 -1.16407,-0.45825 -1.65113,-0.24139 -2.7618,1.22968 -1.99338,2.64021 -5.35925,4.79549 -8.90545,5.70245 -3.330199,0.85173 -9.854181,0.53963 -9.854181,-0.4714 0,-0.58571 3.958088,-4.33208 5.61987,-5.31927 1.970531,-1.17061 4.938181,-2.14894 7.211611,-2.37741 l 1.85289,-0.18622 -3.96875,-0.89887 c -5.823421,-1.31894 -5.20806,-1.3333 -6.841679,0.15973 -3.625088,3.31313 -9.201571,4.93098 -13.958142,4.04953 -1.976959,-0.36635 -6.055383,-1.62832 -6.055383,-1.87368 0,-0.41343 2.571774,-2.38915 4.286122,-3.29275 2.595107,-1.36782 5.279155,-1.97552 8.78693,-1.98947 l 2.934239,-0.0117 -2.910417,-1.1731 c -1.600729,-0.6452 -3.584342,-1.49018 -4.40803,-1.87772 l -1.497614,-0.70462 -1.289214,0.79326 c -3.107781,1.91224 -5.538202,2.58846 -9.209308,2.56233 -2.224412,-0.0158 -3.008082,-0.14495 -4.920161,-0.81059 -2.069552,-0.72046 -4.900845,-2.13062 -6.157344,-3.06673 -0.455401,-0.33928 -0.341231,-0.44366 1.455209,-1.33045 3.080492,-1.52063 4.833912,-1.86497 8.696255,-1.70775 2.334171,0.095 3.813314,0.2982 5.027083,0.69054 0.945885,0.30575 1.764866,0.55745 1.819956,0.55933 0.05509,0.002 -1.147177,-0.75295 -2.671706,-1.6774 -1.524529,-0.92445 -3.454909,-2.19652 -4.289734,-2.82681 -1.493151,-1.12734 -1.535805,-1.14087 -2.61996,-0.83102 -3.870931,1.10633 -4.286773,1.16732 -7.051916,1.03433 -3.155222,-0.15175 -4.953864,-0.68496 -7.473369,-2.21548 -1.545137,-0.93862 -5.229937,-4.17491 -5.229937,-4.59335 0,-0.35867 2.452301,-0.83896 5.029452,-0.98502 3.11354,-0.17646 5.781092,0.42833 9.191848,2.08399 1.273337,0.6181 2.428259,1.17748 2.566494,1.24306 0.138235,0.0656 -0.57614,-0.59542 -1.5875,-1.46888 -1.01136,-0.87346 -2.76022,-2.55548 -3.886356,-3.73781 l -2.047519,-2.1497 -2.053522,0.28724 c -1.659073,0.23206 -2.508598,0.20809 -4.422667,-0.12481 -4.475239,-0.77833 -8.004381,-3.16666 -10.758008,-7.28042 l -1.353606,-2.02222 2.07902,-0.0784 c 2.729616,-0.10297 5.475551,0.52492 7.993197,1.82775 1.73457,0.8976 2.676533,1.56337 5.170488,3.65449 0.273549,0.22937 -0.268797,-0.65454 -1.205215,-1.96422 -0.936417,-1.30969 -2.264472,-3.28889 -2.951234,-4.39822 l -1.248657,-2.01698 -1.889671,-0.1862 c -5.368439,-0.52899 -9.611587,-3.52891 -12.225892,-8.64373 -1.577324,-3.086 -1.575019,-3.26388 0.03945,-3.04479 4.130944,0.56061 8.649701,3.37124 11.113999,6.91283 0.506279,0.72761 0.856768,1.14433 0.778865,0.92605 -0.0779,-0.21829 -0.865785,-2.21189 -1.750848,-4.43024 -0.885062,-2.21834 -1.609204,-4.14852 -1.609204,-4.28928 0,-0.14076 -0.506015,-0.38911 -1.124479,-0.55189 -3.836905,-1.00989 -7.605418,-3.89233 -9.296667,-7.11078 -0.910789,-1.73324 -2.260695,-6.47833 -1.935498,-6.80353 0.245651,-0.24565 3.962667,1.65033 5.506572,2.80879 1.749261,1.31256 3.766914,3.83797 4.759392,5.95713 0.408914,0.87313 0.748945,1.51624 0.755622,1.42914 0.0067,-0.0871 -0.283877,-1.49671 -0.645678,-3.13248 -0.478483,-2.16331 -0.843136,-3.19435 -1.337572,-3.78196 -2.466325,-2.93106 -3.510219,-8.32628 -2.376284,-12.28149 0.512878,-1.78894 2.174103,-5.38425 2.487812,-5.38425 0.263287,0 1.904373,3.50229 2.727501,5.82084 0.526003,1.48162 0.608859,2.21445 0.598288,5.29166 -0.01079,3.14191 -0.0968,3.8246 -0.714534,5.67133 l -0.702265,2.09945 0.575636,2.66305 0.575637,2.66305 0.208934,-1.85209 c 0.278307,-2.46704 1.076093,-4.79202 2.287397,-6.66614 1.130257,-1.74873 3.737925,-4.14693 4.109307,-3.77922 0.396298,0.39238 0.514766,5.53961 0.16615,7.21888 -0.472876,2.27784 -2.155063,5.40499 -3.977188,7.39352 l -1.597266,1.74313 1.16831,3.02286 c 0.64257,1.66258 1.452321,3.58171 1.799446,4.26473 l 0.631136,1.24187 -0.104572,-2.60353 c -0.117298,-2.92039 0.311163,-5.11992 1.432319,-7.3529 0.68467,-1.36363 2.620659,-3.82174 3.009979,-3.82174 0.118256,0 0.489331,0.98227 0.82461,2.18281 0.846714,3.03187 0.851124,6.99412 0.01065,9.56831 -0.638844,1.95664 -1.628467,4.06066 -2.472926,5.25765 l -0.519867,0.7369 1.118607,1.90894 c 0.938585,1.60172 3.485741,5.27005 4.247149,6.1166 0.118189,0.13141 -0.09459,-0.6425 -0.472841,-1.71979 -1.284905,-3.65951 -0.81365,-8.43861 1.169641,-11.86157 l 0.678841,-1.17161 0.518175,0.63992 c 0.872682,1.07772 1.746983,3.01751 2.443738,5.42186 1.014448,3.50065 0.883604,6.67763 -0.443818,10.77622 l -0.58128,1.79477 2.101673,2.12738 c 2.355213,2.38402 5.375577,5.07717 5.012562,4.46953 -0.130404,-0.21828 -0.566708,-0.91973 -0.969564,-1.55878 -1.356583,-2.15193 -1.929374,-4.35503 -1.933583,-7.43705 -0.0037,-2.73849 0.664259,-6.08542 1.214564,-6.08542 0.427633,0 3.437664,4.04106 4.330246,5.81349 1.616579,3.2101 2.271424,7.17503 1.745188,10.56669 -0.229565,1.47959 -0.22647,2.02621 0.01311,2.31488 0.385142,0.46407 4.813076,3.37392 6.976653,4.58476 l 1.5875,0.88844 -1.492202,-1.58289 c -2.637277,-2.79754 -3.950296,-6.23826 -3.956862,-10.36881 -0.0036,-2.27157 0.15611,-3.22073 0.541975,-3.22073 0.514891,0 4.003574,3.26487 5.239379,4.90325 2.279015,3.02142 3.768752,7.40527 3.768752,11.09031 v 1.39492 l 3.770312,1.6087 c 2.073672,0.88478 4.1275,1.69362 4.564062,1.79743 0.725632,0.17253 0.680219,0.0983 -0.529166,-0.86493 -2.51815,-2.00563 -3.960996,-4.05802 -5.040074,-7.16929 -0.627313,-1.80872 -1.162239,-5.88122 -0.772501,-5.88122 0.36051,0 3.080059,1.6045 4.509904,2.66079 2.062281,1.52349 4.527747,4.40105 5.57556,6.50748 0.517695,1.04073 1.196829,2.9378 1.509187,4.21572 0.653246,2.67255 0.118302,2.32961 5.33042,3.41721 1.74625,0.36438 3.47266,0.72693 3.83646,0.80565 0.38297,0.0829 -0.007,-0.26082 -0.92604,-0.81632 -3.26275,-1.97196 -5.75703,-5.07467 -7.012085,-8.72256 -0.547843,-1.59234 -0.693312,-3.04089 -0.305377,-3.04089 0.554215,0 3.385832,1.11851 5.063622,2.00016 4.13044,2.17048 7.83105,6.78913 8.83805,11.03057 0.095,0.40018 0.34657,0.7276 0.55902,0.7276 0.21246,0 1.16708,0.25632 2.12139,0.5696 l 1.73511,0.5696 2.14921,-0.66395 2.14921,-0.66395 0.59842,-1.77681 c 0.32913,-0.97725 0.99471,-2.44884 1.47905,-3.2702 1.1874,-2.01363 4.21315,-4.99496 6.29603,-6.20361 1.66977,-0.96894 5.74026,-2.49634 5.98921,-2.24738 0.31444,0.31444 -0.80174,3.94328 -1.72768,5.61691 -1.40979,2.54819 -2.86713,4.11767 -5.18955,5.58886 -1.08561,0.68771 -1.97384,1.27482 -1.97384,1.3047 0,0.0941 3.939,-0.6847 6.56644,-1.29821 l 2.52159,-0.58879 0.36899,-1.82576 c 0.89211,-4.4141 3.49691,-8.58559 6.93875,-11.11213 1.19472,-0.877 4.41238,-2.78429 4.6972,-2.78429 0.35052,0 -0.16457,4.50894 -0.67801,5.93517 -1.1222,3.11723 -3.80288,6.62561 -5.8853,7.70247 -0.45128,0.23336 -0.7626,0.48219 -0.69184,0.55295 0.15282,0.15283 6.2016,-2.23694 8.11109,-3.20455 l 1.33442,-0.67621 v -1.8053 c 0,-4.15071 1.86737,-8.67478 4.92006,-11.9198 2.03729,-2.16565 3.95812,-3.66975 4.278,-3.34987 0.10595,0.10595 0.23535,1.13322 0.28756,2.28283 0.184,4.05184 -1.3409,8.34661 -3.99441,11.24998 l -1.35421,1.48173 2.36327,-1.39165 c 1.2998,-0.76541 3.28166,-2.03307 4.40413,-2.81704 1.97654,-1.38046 2.03491,-1.452 1.85208,-2.27003 -0.10382,-0.46455 -0.1775,-2.33292 -0.16373,-4.15193 0.0212,-2.80342 0.12502,-3.59048 0.68121,-5.16607 0.84975,-2.40715 2.48475,-5.17545 4.13711,-7.00476 l 1.31445,-1.45521 0.59157,1.94022 c 0.50847,1.66768 0.57367,2.35526 0.46416,4.89479 -0.14262,3.30709 -0.66863,5.06472 -2.19422,7.33174 -0.49115,0.72984 -0.74985,1.2418 -0.5749,1.1377 0.67057,-0.39902 5.77261,-5.24041 6.42784,-6.09947 l 0.68849,-0.90266 -0.52769,-1.24074 c -1.21556,-2.85809 -1.52075,-7.34269 -0.72161,-10.60365 0.49792,-2.03183 2.44625,-6.15153 2.98996,-6.32222 0.46434,-0.14578 2.04654,3.36491 2.45332,5.4436 0.42,2.14624 0.18995,5.55811 -0.50828,7.53819 -0.29674,0.8415 -0.43129,1.46311 -0.299,1.38135 0.3046,-0.18825 2.75767,-3.68544 4.20586,-5.99602 l 1.1042,-1.76175 -0.69469,-1.01637 c -0.94277,-1.37933 -1.79481,-3.10618 -2.3944,-4.85284 -0.78031,-2.27305 -0.70602,-7.3917 0.14746,-10.16052 l 0.64446,-2.09073 1.14328,1.29698 c 2.37979,2.69971 3.67792,6.47909 3.44447,10.02823 -0.0766,1.16417 -0.21682,2.35479 -0.31165,2.64583 -0.0948,0.29105 0.18862,-0.14653 0.6299,-0.97239 0.97003,-1.8154 2.93054,-6.67726 2.93054,-7.26744 0,-0.23319 -0.68595,-1.15726 -1.52433,-2.05349 -2.97279,-3.17792 -4.48947,-7.20843 -4.19121,-11.13793 0.0884,-1.16416 0.25568,-2.46437 0.37181,-2.88934 l 0.21115,-0.77269 1.86505,1.75939 c 2.78667,2.6288 4.0117,5.20242 4.30317,9.0403 l 0.16121,2.12276 0.5922,-2.30553 c 0.75328,-2.93265 0.74392,-3.39912 -0.11606,-5.78428 -0.9911,-2.74882 -1.04554,-7.0961 -0.12566,-10.03415 0.81037,-2.58826 2.63769,-6.41108 2.96718,-6.20745 0.39923,0.24674 1.45873,2.46473 2.07699,4.34804 1.46872,4.47393 0.87096,8.6677 -1.83008,12.83962 -0.77019,1.1896 -1.16455,2.21635 -1.57339,4.0964 -0.30007,1.37989 -0.60777,2.74911 -0.68379,3.0427 -0.076,0.2936 0.27468,-0.29962 0.77933,-1.31827 1.10444,-2.22933 3.41701,-5.09451 4.97387,-6.1624 1.20902,-0.82929 3.93732,-2.25202 4.87648,-2.54293 0.56286,-0.17436 0.56415,-0.16478 0.21745,1.61914 -1.03634,5.33238 -3.45973,8.72096 -7.78525,10.88595 -1.18136,0.59129 -2.56306,1.15295 -3.07044,1.24813 -1.07328,0.20135 -1.08044,0.2126 -2.44012,3.83189 -0.57067,1.51904 -1.36041,3.39881 -1.75499,4.17726 -0.82198,1.62169 -0.75867,2.10995 0.0946,0.72936 1.09426,-1.77055 4.452,-4.61348 6.73691,-5.704 1.99255,-0.95099 4.21648,-1.6001 5.48212,-1.6001 0.65791,0 0.5598,0.41578 -0.71937,3.04886 -2.46812,5.08044 -6.49371,7.96825 -12.06583,8.65557 l -2.3033,0.28412 -1.17099,2.00937 c -0.64405,1.10515 -1.82154,2.91364 -2.61666,4.01885 -2.06358,2.8684 -2.07018,2.89646 -0.32684,1.38989 3.48156,-3.00872 6.76173,-4.33503 11.19866,-4.52808 l 3.00673,-0.13082 -0.9939,1.55581 c -3.82077,5.98085 -9.62393,8.9444 -15.70862,8.02206 l -1.96017,-0.29712 -1.77707,1.94251 c -0.97738,1.06838 -2.68166,2.71028 -3.78729,3.64867 -1.10562,0.93838 -1.97228,1.74409 -1.92591,1.79046 0.0464,0.0464 0.75569,-0.31996 1.57625,-0.81408 0.82056,-0.49412 2.53501,-1.24029 3.80988,-1.65817 2.03308,-0.6664 2.70817,-0.75955 5.49296,-0.75788 3.03112,0.002 5.95312,0.45784 5.95312,0.9291 0,0.11922 -0.8383,0.98186 -1.86288,1.91698 -2.27865,2.07968 -5.34449,3.87251 -7.65299,4.47528 -2.38663,0.62318 -5.99372,0.59208 -8.3435,-0.0719 -1.01865,-0.28785 -2.11364,-0.59131 -2.43331,-0.67436 -0.42502,-0.11041 -1.13611,0.23979 -2.64584,1.30304 -1.13553,0.79971 -3.07664,2.0754 -4.31356,2.83486 -1.23693,0.75947 -2.01084,1.29255 -1.71979,1.18463 2.06686,-0.76639 4.76003,-1.23779 7.14375,-1.25039 3.10434,-0.0164 5.18588,0.46723 7.9057,1.83691 l 1.86611,0.93975 -0.78486,0.62846 c -1.02651,0.82195 -4.06519,2.30562 -6.12358,2.98991 -4.36212,1.45016 -9.61987,0.73707 -13.71524,-1.86014 l -1.2349,-0.78314 -3.08474,1.31722 c -1.69661,0.72448 -3.68006,1.55568 -4.40766,1.84712 l -1.32292,0.52989 2.91042,0.0183 c 1.60073,0.0101 3.66744,0.1968 4.59268,0.41491 2.55874,0.60318 6.74048,2.83652 8.06312,4.30625 0.471,0.52338 0.47005,0.5469 -0.0329,0.81608 -1.22858,0.65752 -5.39185,1.66133 -7.4635,1.79953 -4.30726,0.28734 -8.47765,-1.11347 -12.00185,-4.03134 l -1.81541,-1.50307 -2.94709,0.67828 c -1.62091,0.37305 -3.60195,0.82815 -4.40231,1.01132 l -1.45521,0.33304 1.67844,0.19611 c 2.08977,0.24416 4.75096,1.11091 6.65593,2.16784 1.49322,0.82848 6.08542,5.0969 6.08542,5.65636 0,0.50338 -1.74009,0.73292 -5.55625,0.73292 -4.34739,0 -6.32959,-0.52682 -9.28489,-2.46769 -1.84096,-1.20904 -4.29372,-3.52612 -4.91807,-4.64601 -0.22671,-0.40664 -0.45639,-0.4657 -1.23973,-0.31874 -0.52881,0.0992 -0.95354,0.26427 -0.94384,0.36682 0.01,0.10255 0.89489,0.86585 1.96707,1.69623 1.97845,1.53226 3.39555,3.19336 4.85987,5.69664 l 0.81051,1.38558 -0.97855,0.66494 c -0.5382,0.36571 -1.10577,0.66493 -1.26127,0.66493 -0.15551,0 -0.55654,-0.56554 -0.8912,-1.25677 -1.01078,-2.08776 -2.87547,-4.49392 -4.58545,-5.91698 -2.41864,-2.01281 -2.57651,-2.05212 -4.16026,-1.03583 -1.97432,1.26692 -4.5325,4.1721 -5.7011,6.47442 -0.55826,1.09986 -1.02457,1.99391 -1.03624,1.98677 -0.0117,-0.007 -0.4314,-0.30261 -0.93273,-0.65661 z m 1.0438,-25.15911 C 89.460746,232.24513 71.768363,219.36516 62.991763,201.11387 52.747617,179.81076 55.987601,154.66826 71.336721,136.3564 c 5.599201,-6.67998 13.493467,-12.58626 21.649726,-16.19776 4.684898,-2.07443 11.114193,-3.87109 16.732923,-4.67601 3.49307,-0.5004 12.49351,-0.43246 16.25139,0.12267 26.38005,3.89704 46.71176,23.90372 51.12631,50.30901 0.68472,4.09559 0.69299,14.64978 0.0146,18.67642 -1.04286,6.19029 -2.82919,11.67069 -5.67509,17.41104 -2.91339,5.87648 -6.23674,10.5121 -10.99375,15.33479 -9.67695,9.81055 -22.04744,15.97307 -35.37643,17.62323 -4.06563,0.50334 -11.79662,0.49291 -15.61164,-0.0211 z m 14.60528,-2.60985 c 10.40888,-1.2176 19.5035,-4.88608 28.04772,-11.31358 10.46804,-7.87473 18.0779,-19.31706 21.24871,-31.94995 1.94945,-7.76689 2.12788,-17.13911 0.48356,-25.4 -4.23643,-21.28337 -20.99437,-38.71373 -42.49908,-44.20437 -5.92113,-1.5118 -15.12259,-2.0224 -21.35702,-1.18512 -23.409619,3.14388 -42.455075,19.95466 -48.290727,42.62459 -1.597612,6.20629 -2.187015,12.48369 -1.725308,18.37531 1.060282,13.52975 6.519472,25.75384 15.85588,35.50411 8.510589,8.88785 19.035201,14.6368 31.117445,16.99756 4.94689,0.96658 11.70809,1.18437 17.11882,0.55145 z m -11.60109,-1.99345 c -3.25854,-0.31667 -8.52978,-1.40551 -11.67368,-2.41134 -9.686983,-3.09917 -18.550422,-8.90828 -24.975787,-16.36916 -8.663861,-10.06014 -13.219021,-21.54989 -13.636371,-34.39583 -0.228964,-7.04746 0.598356,-12.89077 2.730088,-19.28242 4.634709,-13.89644 14.557129,-25.37767 27.557122,-31.88635 5.029972,-2.51835 8.609788,-3.74877 14.216308,-4.8863 8.40888,-1.70611 17.4393,-1.33875 25.90387,1.05378 19.11778,5.40368 33.88131,20.67008 38.61859,39.93398 2.12506,8.64142 2.12304,17.66274 -0.006,26.44439 -2.62768,10.83885 -8.95819,21.0559 -17.65397,28.4924 -10.03186,8.57911 -21.70854,13.08515 -34.82404,13.43861 -2.11005,0.0569 -4.92535,-0.002 -6.25622,-0.13176 z m 8.90206,-1.59087 c 16.75588,-1.27403 31.64777,-10.09132 41.09768,-24.33338 5.67305,-8.54992 8.64398,-18.55302 8.64398,-29.10417 0,-26.26797 -18.71266,-48.35756 -44.84687,-52.94002 -4.0759,-0.71468 -11.9351,-0.85785 -15.875,-0.2892 -8.01027,1.15615 -15.669294,3.99645 -22.092708,8.19292 -3.861058,2.52247 -6.272006,4.52884 -9.657291,8.03671 -14.220053,14.73499 -18.729845,36.33667 -11.59102,55.52043 4.713807,12.66714 14.723242,23.6801 26.918497,29.61731 7.181502,3.49627 13.718552,5.07323 22.904812,5.5254 0.50932,0.0251 2.53339,-0.0766 4.49792,-0.226 z M 91.838912,216.87691 c -1.79314,-1.09346 -1.781564,-3.50254 0.02398,-4.99082 0.503833,-0.4153 5.674286,-3.18979 11.489895,-6.16552 7.96216,-4.07408 10.49537,-5.48361 10.25615,-5.70672 -0.51816,-0.48328 -6.9225,-4.51912 -8.38347,-5.28304 -1.54118,-0.80585 -2.95355,-0.88115 -4.73549,-0.25244 -0.635737,0.2243 -1.646935,0.4052 -2.247102,0.40201 -1.859452,-0.01 -2.251661,-0.2494 -12.732881,-7.77507 -4.718435,-3.38791 -4.6793,-3.35356 -4.377093,-3.84236 0.188832,-0.30543 0.68473,-0.0933 2.570119,1.09959 4.897568,3.09863 10.739314,6.5549 11.079018,6.5549 0.628077,0 0.648725,-0.43847 0.04636,-0.98455 -0.322937,-0.29277 -3.236299,-2.29875 -6.474137,-4.45773 -5.331225,-3.55486 -6.596364,-4.61189 -5.51988,-4.61189 0.201904,0 2.461793,1.24582 5.021976,2.76848 7.544435,4.48705 8.602538,5.02929 8.801592,4.51057 0.09306,-0.2425 0.0041,-0.59564 -0.197716,-0.78474 -0.2018,-0.18911 -2.74816,-1.86161 -5.658576,-3.71667 -5.879846,-3.74773 -7.011458,-4.53982 -7.011458,-4.90777 0,-0.58225 1.09807,-0.0637 7.319211,3.45623 3.603782,2.03904 6.675687,3.66628 6.826455,3.6161 0.972133,-0.32361 -0.0079,-1.11388 -5.969152,-4.81318 -3.514584,-2.18101 -6.449606,-4.11944 -6.52227,-4.30762 -0.07266,-0.18817 -0.052,-0.42225 0.04592,-0.52018 0.282194,-0.28219 14.913686,7.44015 16.782986,8.85788 0.87839,0.6662 2.14676,2.9386 2.15176,3.85509 0.005,0.93389 1.07785,2.55508 2.18369,3.3001 1.32951,0.89571 10.8591,6.14821 11.15467,6.14821 0.42327,0 12.22461,-6.411 12.81697,-6.96272 0.87276,-0.81291 1.27068,-1.67378 1.60192,-3.46566 0.65553,-3.54609 2.61069,-6.12054 5.97971,-7.87377 3.03821,-1.58108 5.39412,-2.18189 8.59896,-2.19292 2.4745,-0.009 2.92271,0.0647 4.10104,0.6703 1.91844,0.98592 2.90172,2.48712 2.90117,4.42931 -0.001,4.31865 -5.09478,10.07072 -10.59285,11.96234 -2.26017,0.77761 -4.28524,0.69052 -7.13695,-0.30694 -1.83555,-0.64202 -2.62014,-0.7945 -3.36711,-0.65437 -0.96099,0.18028 -10.80924,5.93567 -10.95575,6.40262 -0.0416,0.13242 1.55213,1.07421 3.5415,2.09285 7.85608,4.02266 17.43908,9.19968 18.00619,9.72748 1.41254,1.31462 1.29334,4.05164 -0.21031,4.82921 -0.98085,0.50722 -2.45472,0.50009 -3.4541,-0.0167 -0.43499,-0.22494 -5.45947,-3.50491 -11.16551,-7.28881 -6.23132,-4.13224 -10.55117,-6.83397 -10.8167,-6.76501 -0.24314,0.0632 -5.32053,3.22223 -11.28308,7.02018 -5.96255,3.79796 -11.15894,7.02625 -11.547536,7.174 -1.055591,0.40133 -2.031687,0.32495 -2.942132,-0.23024 z M 110.3306,181.77064 c -5.36159,-0.64978 -9.18757,-1.93862 -10.42507,-3.51184 -0.46114,-0.58625 -0.504908,-1.13331 -0.504908,-6.31096 v -5.66907 l -1.124479,0.16639 c -3.119546,0.4616 -7.504319,-1.17852 -10.144968,-3.7947 -5.391197,-5.34126 -5.437194,-13.7693 -0.104199,-19.09264 3.607475,-3.60094 8.361291,-4.75394 13.754894,-3.33613 0.58838,0.15466 0.77501,-0.003 1.68928,-1.43044 2.00774,-3.13387 5.63072,-5.66943 9.6878,-6.78006 2.73577,-0.74892 6.73031,-0.63029 9.39017,0.27885 3.73978,1.27827 6.81975,3.53928 8.75442,6.42665 0.56496,0.84317 1.04213,1.56544 1.06036,1.60504 0.0182,0.0396 0.7945,-0.10747 1.72504,-0.32682 4.82024,-1.13623 9.27798,0.1091 12.67564,3.54114 2.78688,2.81508 3.96521,5.65407 3.96521,9.55354 0,4.92183 -2.94278,9.78789 -7.17724,11.86798 -2.11883,1.04084 -5.2323,1.71569 -6.91182,1.49816 l -1.25678,-0.16277 -0.004,5.49922 c -0.003,3.89378 -0.10135,5.69232 -0.33772,6.16068 -0.47922,0.94955 -2.79375,2.24123 -5.1593,2.87927 -4.71499,1.27173 -13.37348,1.68734 -19.55243,0.93851 z m 11.6919,-2.49791 c 4.7905,-0.39116 10.02285,-1.58932 9.44854,-2.16362 -0.44046,-0.44046 -4.7329,-1.46082 -7.59646,-1.80575 -3.63891,-0.43832 -10.53325,-0.38288 -13.82212,0.11116 -2.96144,0.44485 -6.68309,1.43484 -6.68309,1.77775 0,0.1189 0.80367,0.45352 1.78594,0.74358 4.58223,1.35315 10.71501,1.83923 16.86719,1.33688 z m -14.94896,-6.17614 c 7.0284,-1.424 18.6667,-1.06225 23.84524,0.74117 0.63684,0.22177 1.24718,0.40496 1.35632,0.40708 0.10914,0.002 0.19844,-2.05404 0.19844,-4.56924 v -4.57309 l -1.87779,-0.73057 c -5.25293,-2.04368 -11.06082,-2.87965 -16.33957,-2.35187 -3.5341,0.35335 -7.31197,1.24407 -9.97928,2.35283 l -1.83357,0.76219 -0.0721,4.65003 -0.0721,4.65004 1.395,-0.46826 c 0.76726,-0.25755 2.28798,-0.64918 3.37939,-0.87031 z m -6.52367,-10.04046 1.01696,-0.4428 -1.4806,-1.35319 c -1.543806,-1.41095 -3.373097,-4.63354 -3.741142,-6.59062 -0.163506,-0.86944 -0.110471,-0.82857 0.867736,0.66878 1.280905,1.9607 3.399016,3.85627 5.471206,4.89638 1.85391,0.93056 1.99009,0.93837 4.45369,0.25568 1.05025,-0.29105 2.17984,-0.52917 2.51019,-0.52917 0.33034,0 0.60063,-0.0431 0.60063,-0.0957 0,-0.0526 -0.34277,-0.8563 -0.76171,-1.78593 -0.98464,-2.18494 -1.35836,-4.0056 -1.34078,-6.53191 l 0.0142,-2.0375 0.59807,1.98437 c 0.79747,2.64597 1.99038,4.91618 3.40334,6.47684 l 1.16055,1.28187 3.5564,-0.0487 3.55641,-0.0487 0.99808,-1.09323 c 1.32824,-1.45486 2.49505,-3.96691 3.08229,-6.63592 0.47254,-2.14769 0.48301,-2.16549 0.68217,-1.15934 0.36086,1.82308 -0.0111,5.43336 -0.76352,7.41019 -0.38045,0.99959 -0.69173,1.84557 -0.69173,1.87995 0,0.0344 0.95022,0.26783 2.1116,0.51876 2.11117,0.45615 2.11185,0.45611 3.3311,-0.15281 1.48447,-0.74138 3.53095,-2.71354 4.80149,-4.62712 0.51878,-0.78133 0.97147,-1.4206 1.00598,-1.4206 0.0345,0 -0.0572,0.56555 -0.20391,1.25677 -0.3738,1.76169 -1.27207,3.68216 -2.42537,5.18538 -0.5413,0.70552 -0.94626,1.3125 -0.89993,1.34883 0.0463,0.0363 0.9755,0.47112 2.06481,0.96619 1.76707,0.80309 2.22341,0.899 4.23334,0.88967 2.00977,-0.009 2.44459,-0.10559 4.03116,-0.8925 2.0797,-1.0315 4.05548,-2.98739 5.10002,-5.0487 2.57697,-5.08541 0.23413,-11.58138 -5.0858,-14.10131 -1.64597,-0.77965 -2.00907,-0.84912 -4.43845,-0.84912 -2.43907,0 -2.78849,0.0676 -4.47128,0.86448 -1.004,0.47547 -1.84168,0.83266 -1.86153,0.79375 -0.0198,-0.0389 -0.49005,-0.98445 -1.04491,-2.10123 -2.23481,-4.49803 -6.64777,-7.41881 -11.78268,-7.79854 -3.66785,-0.27125 -7.95053,1.29014 -10.5897,3.86081 -1.18403,1.1533 -3.17909,4.23247 -3.57638,5.51978 -0.10352,0.33543 -0.26741,0.56784 -0.3642,0.51647 -2.8599,-1.51777 -3.33663,-1.64852 -5.99682,-1.64467 -2.138403,0.003 -2.93936,0.1209 -4.176337,0.61424 -2.139825,0.85342 -4.443018,3.04748 -5.542416,5.27981 -0.802922,1.63033 -0.86458,1.94553 -0.86458,4.41984 0,2.54721 0.04379,2.75299 0.99639,4.68186 1.428251,2.892 4.004,5.05013 6.910069,5.78971 1.287529,0.32766 4.422862,0.11783 5.545914,-0.37116 z M 42.679644,161.6661 c -4.493466,-1.07212 -8.210306,-1.98967 -8.259646,-2.03901 -0.04934,-0.0493 0.323148,-1.68282 0.82775,-3.62996 0.504602,-1.94714 0.917459,-3.57819 0.917459,-3.62456 0,-0.15765 0.658946,-0.082 1.626025,0.18657 l 0.964567,0.26792 -0.497012,1.91342 c -0.730083,2.81071 -0.765232,2.72316 1.279857,3.18784 0.982266,0.22319 1.978109,0.48076 2.212985,0.57238 0.323491,0.12618 0.468755,-0.042 0.599044,-0.69341 0.0946,-0.47299 0.290566,-1.30031 0.435484,-1.8385 l 0.263487,-0.97851 1.203733,0.30707 c 0.662053,0.16889 1.211848,0.36461 1.221767,0.43494 0.0099,0.0703 -0.136064,0.81644 -0.324407,1.65805 -0.206687,0.92357 -0.2463,1.62035 -0.09992,1.75762 0.242955,0.22784 3.727552,1.07781 4.418656,1.07781 0.243085,0 0.533192,-0.72541 0.856872,-2.14261 l 0.489361,-2.14262 1.075273,0.17179 c 0.5914,0.0945 1.162149,0.25851 1.268331,0.36452 0.106181,0.10601 -0.18431,1.76679 -0.645536,3.69063 -0.641077,2.67401 -0.93582,3.49199 -1.251391,3.47289 -0.227039,-0.0137 -4.089269,-0.90216 -8.582735,-1.97427 z m 140.192426,1.13936 c -0.0808,-0.32742 -0.17239,-0.94075 -0.20347,-1.36295 l -0.0565,-0.76764 7.27604,-1.54107 c 4.00182,-0.84759 7.29018,-1.54395 7.30745,-1.54746 0.0173,-0.004 -0.12024,-0.65877 -0.30558,-1.45611 l -0.337,-1.44972 0.96704,-0.2686 c 0.97916,-0.27197 1.62851,-0.34483 1.62851,-0.18274 0,0.0488 0.41123,1.92362 0.91384,4.16616 0.50262,2.24253 0.83004,4.15484 0.72761,4.24958 -0.10244,0.0947 -0.68037,0.25248 -1.28429,0.35055 l -1.09805,0.17831 -0.17172,-1.01639 c -0.31315,-1.85354 0.0809,-1.84187 -7.7556,-0.22962 -3.93786,0.81016 -7.2276,1.47301 -7.31052,1.47301 -0.0829,0 -0.21691,-0.26789 -0.29774,-0.59531 z m -0.84187,-7.62798 c -1.98245,-0.9813 -2.84674,-4.06806 -1.67647,-5.98739 0.66936,-1.09779 1.68485,-1.59704 7.50468,-3.6895 5.61302,-2.0181 6.47534,-2.08177 8.01274,-0.59167 1.82317,1.76709 2.02612,4.60526 0.43734,6.11611 -0.63315,0.60208 -3.11848,1.79241 -3.74245,1.79241 -0.20653,0 -0.82584,-1.75119 -0.82584,-2.33518 0,-0.15918 0.47434,-0.43153 1.05408,-0.60522 1.33888,-0.40114 1.91971,-1.04044 1.81003,-1.99227 -0.0608,-0.52748 -0.29032,-0.81755 -0.78327,-0.98985 -0.56906,-0.19891 -1.6346,0.0921 -5.79434,1.58263 -2.92133,1.04675 -5.21696,2.01803 -5.37797,2.27541 -0.18955,0.30301 -0.19662,0.69023 -0.0217,1.19062 0.32133,0.91933 1.51566,1.11288 3.05833,0.49563 0.57116,-0.22854 1.13629,-0.41552 1.25583,-0.41552 0.20988,0 0.83027,1.74488 0.83027,2.33517 0,0.31307 -3.13453,1.36913 -4.06276,1.36879 -0.3121,-1.2e-4 -1.06741,-0.24769 -1.67849,-0.55017 z m -132.10666,-3.28223 -3.571875,-3.2547 -4.101042,-0.17791 c -2.255573,-0.0978 -4.242414,-0.22302 -4.415203,-0.27815 -0.222288,-0.0709 -0.146558,-0.49693 0.258957,-1.45676 l 0.573119,-1.35653 1.460834,0.1463 c 4.24539,0.42518 5.151679,0.46731 4.900418,0.22784 -0.145521,-0.1387 -1.217083,-1.06187 -2.38125,-2.05148 -1.164166,-0.98962 -2.208625,-1.88035 -2.321018,-1.9794 -0.112393,-0.0991 0.04624,-0.74661 0.352525,-1.43901 0.644967,-1.45805 0.130399,-1.68911 4.083226,1.83351 1.310751,1.16809 2.581935,2.27603 2.824853,2.46207 0.26637,0.20401 2.247331,0.48441 4.991069,0.7065 2.50217,0.20252 4.609521,0.42835 4.683002,0.50183 0.07348,0.0735 -0.08891,0.67463 -0.360861,1.33589 -0.57253,1.39211 -0.564503,1.39056 -4.764825,0.92219 -1.391343,-0.15514 -2.577607,-0.23418 -2.636143,-0.17565 -0.05854,0.0585 1.081593,1.1429 2.533619,2.4097 l 2.640047,2.30327 -0.43014,1.11353 c -0.236577,0.61244 -0.501532,1.19185 -0.588789,1.28759 -0.08726,0.0957 -1.765992,-1.29055 -3.730523,-3.08063 z m 3.767014,-10.54107 c -2.366527,-1.48057 -5.495177,-3.40632 -6.952555,-4.27945 -1.457378,-0.87312 -2.840849,-1.71647 -3.07438,-1.8741 -0.370599,-0.25016 -0.181955,-0.68762 1.483237,-3.43959 1.049312,-1.73413 2.008833,-3.25737 2.132269,-3.38496 0.245512,-0.25378 2.115248,0.78437 2.115248,1.17447 0,0.13082 -0.39886,0.86525 -0.886356,1.63206 -0.487496,0.76681 -1.025811,1.659 -1.196255,1.98264 -0.333123,0.63254 -0.4369,0.53831 2.656547,2.41212 l 0.97081,0.58806 0.985026,-1.59587 c 0.541764,-0.87773 1.043345,-1.59587 1.114626,-1.59587 0.105902,0 1.796974,0.96541 2.138871,1.22106 0.0521,0.0389 -0.347714,0.79916 -0.888477,1.68936 -0.540763,0.89019 -0.940578,1.6571 -0.888478,1.70424 0.38352,0.34704 3.939031,2.52909 4.120979,2.52909 0.126184,0 0.6699,-0.74414 1.208259,-1.65365 0.538359,-0.9095 1.08968,-1.82438 1.225158,-2.03306 0.205326,-0.31626 0.423711,-0.26202 1.312086,0.32587 l 1.065761,0.70529 -1.991596,3.31215 c -1.095377,1.82168 -2.071787,3.30314 -2.169799,3.29212 -0.09801,-0.011 -2.114454,-1.23141 -4.480981,-2.71198 z m 121.754306,0.11503 c -2.24644,-1.36986 -2.9336,-3.8024 -1.71653,-6.07651 0.46918,-0.87667 9.00147,-6.43575 10.86132,-7.07652 1.79939,-0.61994 3.77516,0.32757 4.77669,2.29073 0.68629,1.34524 0.67594,2.99464 -0.025,3.97896 -0.53116,0.74595 -2.63582,2.35864 -3.07281,2.35453 -0.22439,-0.002 -1.51741,-2.11198 -1.36251,-2.22328 0.048,-0.0345 0.47446,-0.33009 0.9477,-0.65689 1.16891,-0.80719 1.49052,-1.45739 1.09364,-2.21102 -0.41921,-0.79604 -0.78973,-1.01091 -1.4249,-0.82633 -0.74768,0.21727 -8.69798,5.29807 -9.25718,5.91598 -0.60784,0.67165 -0.3383,1.77462 0.53041,2.17043 0.56534,0.25759 0.85258,0.17082 2.17551,-0.65719 1.3495,-0.84464 1.51679,-1.0441 1.4598,-1.74049 -0.0531,-0.64856 0.10116,-0.88884 0.87926,-1.36973 1.05065,-0.64934 0.98862,-0.68482 2.32135,1.32751 l 0.95816,1.44674 -1.94596,1.25402 c -4.2086,2.71213 -5.5515,3.10369 -7.19899,2.09906 z m -113.282711,-7.1725 c -0.995785,-0.22878 -0.71074,-0.0181 -5.490539,-4.05758 -4.524168,-3.8234 -5.16057,-4.59497 -5.16057,-6.25661 0,-2.35 2.26616,-4.74764 4.497916,-4.75887 0.766835,-0.004 3.071275,1.2557 3.821167,2.08857 0.513048,0.56981 0.512337,0.57227 -0.440636,1.52524 l -0.954511,0.95452 -1.132842,-0.83311 c -1.694293,-1.24599 -2.880678,-1.03229 -2.880678,0.51889 0,0.8175 0.578199,1.40648 5.39835,5.49902 1.732166,1.4707 3.309744,2.67399 3.505729,2.67399 0.496674,0 1.414671,-0.96883 1.414671,-1.493 0,-0.23907 -0.57537,-1.01005 -1.2786,-1.71327 l -1.278599,-1.2786 0.768695,-0.93257 c 0.422783,-0.5129 0.920037,-0.93256 1.105009,-0.93256 0.684684,0 3.020328,2.55663 3.306482,3.61932 0.791661,2.94001 -2.226463,6.06002 -5.201044,5.37662 z m 107.368731,-0.77405 -0.82253,-1.03854 2.4683,-3.9224 c 1.35757,-2.15732 2.80797,-4.51772 3.22313,-5.24532 0.89459,-1.56788 1.23386,-1.81982 -4.18656,3.10885 -2.04051,1.85539 -3.79209,3.37344 -3.8924,3.37344 -0.10032,0 -0.50907,-0.42829 -0.90833,-0.95176 -0.7088,-0.92927 -0.71423,-0.96314 -0.22985,-1.4337 0.27286,-0.26508 3.17501,-2.93888 6.44923,-5.94178 l 5.95313,-5.45983 1.25951,1.35873 1.25952,1.35873 -0.48704,0.70616 c -0.87125,1.26321 -4.54554,7.40282 -4.54554,7.59543 0,0.15887 2.80492,-2.29788 6.02427,-5.2765 l 0.86489,-0.80021 0.97396,0.97396 c 0.53568,0.53568 0.92039,1.01578 0.8549,1.06689 -0.48006,0.3747 -7.56721,6.65489 -9.99005,8.85258 -1.64551,1.49259 -3.09402,2.7138 -3.21892,2.7138 -0.12489,0 -0.59722,-0.46734 -1.04962,-1.03853 z m -99.858166,-7.16829 c -1.049248,-0.31822 -1.347384,-0.61474 -5.600073,-5.56981 -2.069376,-2.41116 -4.134805,-4.80796 -4.589842,-5.32622 l -0.82734,-0.94229 1.167474,-0.95665 1.167474,-0.95666 3.528545,4.15836 c 1.9407,2.28709 4.149169,4.81673 4.907709,5.62141 1.367384,1.45056 1.385462,1.45959 2.116666,1.05783 1.07123,-0.58858 1.078503,-1.50827 0.02243,-2.83673 -0.479837,-0.60359 -2.360711,-2.86014 -4.179722,-5.01453 -4.451169,-5.27188 -4.095241,-4.76605 -3.693916,-5.24962 0.186795,-0.22507 0.665367,-0.64117 1.063494,-0.92466 l 0.723866,-0.51544 4.484669,5.35644 c 4.79553,5.72772 5.35994,6.56226 5.358398,7.92298 -0.0028,2.49505 -3.258151,4.90095 -5.649836,4.17559 z m 92.042806,-0.89374 -1.05282,-0.8906 1.84657,-2.06114 c 1.01561,-1.13363 3.43537,-3.91601 5.37726,-6.18307 4.99079,-5.8265 4.35461,-5.33057 5.46163,-4.25761 0.51125,0.49553 0.92954,0.99502 0.92954,1.10999 0,0.27199 -11.10504,13.18214 -11.33455,13.17697 -0.0961,-0.002 -0.64859,-0.40471 -1.22763,-0.89454 z m -3.44511,-2.82532 c -0.58208,-0.43926 -1.10067,-0.92016 -1.15242,-1.06866 -0.0517,-0.1485 0.56921,-1.26673 1.37992,-2.48494 0.81071,-1.21822 1.54439,-2.49534 1.6304,-2.83804 0.17094,-0.68108 -0.70697,-2.0554 -1.31297,-2.0554 -0.1885,0 -1.08634,1.12774 -1.99521,2.50607 -2.17627,3.3004 -2.14609,3.27938 -3.46003,2.40986 l -1.07015,-0.70819 0.59332,-0.97939 c 0.49188,-0.81195 5.94685,-8.94134 8.41784,-12.54487 0.37041,-0.54018 0.77307,-0.98666 0.89481,-0.99219 0.32765,-0.0149 3.96497,2.54312 4.64408,3.26599 1.29621,1.37976 1.17483,3.1006 -0.37771,5.35482 -1.01071,1.4675 -2.32211,2.48165 -3.20904,2.48165 -0.42808,0 -0.49343,0.15009 -0.40293,0.92533 0.1582,1.35513 -0.0566,1.94018 -1.55468,4.23506 -0.74343,1.13883 -1.45741,2.34863 -1.5866,2.68844 -0.1292,0.33981 -0.26762,0.61453 -0.3076,0.61048 -0.04,-0.004 -0.54894,-0.36676 -1.13103,-0.80602 z m 4.35011,-10.02623 c 0.59007,-0.3158 2.13218,-2.67499 2.13218,-3.26191 0,-0.40261 -1.25036,-1.77348 -1.61758,-1.77348 -0.18586,0 -2.88033,4.02849 -2.88033,4.30637 0,0.18887 1.31748,0.95735 1.67104,0.9747 0.1187,0.006 0.43132,-0.10473 0.69469,-0.24568 z m -82.967499,6.28282 c -1.651235,-2.61948 -7.310768,-11.45895 -7.398408,-11.55537 -0.05242,-0.0577 -0.571434,0.21022 -1.153356,0.59532 -0.581921,0.38509 -1.169944,0.70017 -1.306716,0.70017 -0.400928,0 -1.442619,-1.86548 -1.18528,-2.12262 0.499734,-0.49936 6.855963,-4.49196 7.151198,-4.49196 0.281624,0 1.415163,1.55257 1.415163,1.93831 0,0.0858 -0.542636,0.47406 -1.205859,0.86273 -0.663222,0.38868 -1.15247,0.84581 -1.087218,1.01585 0.06525,0.17005 1.777775,2.92292 3.805606,6.1175 2.02783,3.19457 3.769685,5.94974 3.870787,6.12259 0.112838,0.19291 -0.274997,0.62995 -1.004338,1.13175 l -1.188161,0.81748 z m 67.637179,-3.13071 c -1.67349,-0.85475 -3.15602,-1.5961 -3.29452,-1.64745 -0.32558,-0.12069 0.20093,-1.31332 4.13781,-9.37281 l 3.25776,-6.669219 3.50964,1.693142 3.50965,1.693137 -0.57786,1.18941 c -0.56518,1.16331 -0.59328,1.18143 -1.28065,0.82598 -0.38653,-0.19989 -1.37989,-0.66287 -2.20746,-1.02886 l -1.50467,-0.66544 -0.92276,1.83237 c -0.50752,1.0078 -0.92277,1.95268 -0.92277,2.09974 0,0.14706 0.71438,0.628 1.5875,1.06875 0.87313,0.44075 1.5875,0.86393 1.5875,0.94039 0,0.25399 -1.06675,2.23461 -1.20355,2.23461 -0.0739,0 -0.85748,-0.36498 -1.74118,-0.81107 -0.8837,-0.44609 -1.65005,-0.76776 -1.70299,-0.71482 -0.12549,0.12549 -1.96686,4.16585 -1.96686,4.31572 0,0.0631 0.95074,0.5927 2.11275,1.17695 l 2.11275,1.06227 -0.57797,1.18964 c -0.31789,0.6543 -0.64355,1.17884 -0.72369,1.16564 -0.0802,-0.0132 -1.51494,-0.72333 -3.18843,-1.57808 z m -62.434562,-3.09427 c -0.915893,-1.85539 -2.648948,-5.41274 -3.851234,-7.90523 l -2.185975,-4.53178 1.294494,-0.606311 c 0.711971,-0.33347 1.343432,-0.556353 1.403245,-0.495296 0.05981,0.06106 0.995763,1.956477 2.079889,4.212057 1.084126,2.25557 2.761941,5.72241 3.728477,7.70409 0.966536,1.98167 1.757338,3.67589 1.757338,3.76493 0,0.18562 -1.977206,1.23098 -2.32828,1.23098 -0.127982,0 -0.982061,-1.51805 -1.897954,-3.37344 z m 5.796959,-4.08501 c -1.354113,-2.51905 -3.268064,-6.04696 -4.253224,-7.8398 l -1.791199,-3.259707 0.847787,-0.34662 c 2.076654,-0.849047 1.674011,-1.262219 5.115451,5.249227 1.726601,3.26685 3.167206,5.9118 3.201344,5.87766 0.03414,-0.0341 -0.411638,-2.79274 -0.990614,-6.13021 -0.578976,-3.337481 -1.053079,-6.310353 -1.053561,-6.606386 -6.44e-4,-0.395872 0.311679,-0.654083 1.180762,-0.976188 l 1.181637,-0.437946 0.147193,0.843896 c 1.373599,7.875244 2.727816,16.741504 2.577708,16.876634 -0.106361,0.0957 -0.848228,0.38466 -1.648592,0.64203 -0.800365,0.25736 -1.589637,0.51733 -1.753938,0.57771 -0.16576,0.0609 -1.394612,-1.92888 -2.760754,-4.4703 z m 47.377193,3.4178 c -0.50933,-0.15535 -0.9686,-0.31474 -1.02061,-0.35418 -0.052,-0.0394 0.93592,-3.23616 2.19538,-7.1038 1.25947,-3.86764 2.22782,-7.132584 2.1519,-7.25543 -0.0759,-0.122845 -0.68532,-0.376584 -1.35422,-0.563864 -1.30328,-0.364898 -1.3302,-0.455346 -0.65998,-2.218156 l 0.24992,-0.657331 4.04745,1.344022 c 2.2261,0.739212 4.09364,1.383533 4.1501,1.431825 0.0565,0.04829 -0.0441,0.611957 -0.22346,1.252589 l -0.32612,1.164786 -1.20765,-0.363448 c -0.6642,-0.199897 -1.33755,-0.361031 -1.49633,-0.358076 -0.15877,0.003 -1.30071,3.155083 -2.53763,7.004733 -1.64635,5.12386 -2.3553,6.99392 -2.64584,6.97907 -0.21828,-0.0111 -0.81359,-0.14739 -1.32291,-0.30274 z m -4.63021,-1.42595 c -1.80463,-0.37601 -1.68927,-0.24533 -1.77336,-2.00867 l -0.0787,-1.65066 -1.64446,-0.29325 -1.64445,-0.29326 -0.49904,1.48278 -0.49903,1.48278 -1.1638,-0.0874 c -0.6401,-0.0481 -1.2398,-0.16711 -1.33268,-0.26458 -0.0929,-0.0975 1.14731,-3.95476 2.75598,-8.57174 2.67884,-7.688485 2.97121,-8.384778 3.47616,-8.278649 0.30322,0.06373 1.23829,0.248557 2.07792,0.410722 l 1.5266,0.294846 -0.0714,8.887921 c -0.0454,5.65367 -0.16767,8.9082 -0.33597,8.94365 -0.14552,0.0306 -0.50271,0.006 -0.79375,-0.0545 z m -1.74006,-10.20997 -0.0203,-4.034891 -1.17346,3.439583 c -0.64541,1.891768 -1.20183,3.617228 -1.2365,3.834358 -0.0567,0.35497 0.64035,0.60522 2.11977,0.76102 0.25243,0.0266 0.32593,-0.92037 0.31046,-4.00007 z m -30.53893,9.78959 c -0.34997,-1.0021 -3.217672,-16.76415 -3.077629,-16.915903 0.09187,-0.09955 1.801234,-0.470399 3.798589,-0.824103 3.28144,-0.581098 3.64302,-0.60191 3.75056,-0.21587 0.2331,0.83681 0.46372,2.147026 0.37797,2.147382 -0.3271,0.0014 -4.54854,0.80094 -4.6233,0.875699 -0.0514,0.05142 0.0997,1.134729 0.33571,2.40734 0.42178,2.273781 0.44089,2.310908 1.10403,2.144471 1.53696,-0.385754 2.98053,-0.588256 3.0773,-0.431681 0.0568,0.09197 0.18938,0.625829 0.29454,1.186355 0.22997,1.22586 0.0278,1.39787 -1.93031,1.64253 -0.76716,0.0958 -1.45258,0.2677 -1.52316,0.3819 -0.10885,0.17612 0.49737,3.74088 0.7926,4.66076 0.069,0.21512 0.75695,0.16502 2.43086,-0.17702 1.28401,-0.26237 2.36447,-0.44713 2.40103,-0.41057 0.0366,0.0366 0.16984,0.6198 0.29619,1.2961 l 0.22972,1.22964 -0.95702,0.16845 c -0.52636,0.0926 -2.07146,0.39273 -3.43354,0.66685 -2.92548,0.58875 -3.1924,0.60213 -3.34414,0.16767 z m 15.71551,-1.85736 c -1.77694,-1.18707 -1.88479,-1.71186 -1.69816,-8.26295 0.14986,-5.260748 0.22175,-5.935402 0.74706,-7.011463 0.77642,-1.590411 1.91407,-2.179008 3.95824,-2.047899 2.64426,0.169598 3.8979,1.65764 3.89864,4.627587 l 4.1e-4,1.653645 h -1.32292 -1.32292 v -1.414201 c 0,-1.540506 -0.49854,-2.289965 -1.52328,-2.289965 -1.10587,0 -1.29377,0.55765 -1.47729,4.384224 -0.36622,7.636122 -0.26154,8.315772 1.28078,8.315772 1.16117,0 1.45521,-0.5339 1.45521,-2.64226 v -1.61872 l 1.38906,0.08 1.38907,0.08 -0.0683,1.93196 c -0.12573,3.55476 -1.22064,4.81211 -4.19202,4.81393 -1.23921,7.6e-4 -1.8235,-0.13862 -2.51354,-0.5996 z"
       id="path1" /></g></svg>
